<svg preserveAspectRatio="none" width="100%" height="100%" overflow="visible" style="display: block;" viewBox="0 0 18 18" fill="none" xmlns="http://www.w3.org/2000/svg">
<g id="Group 869">
<path id="Vector" d="M9 0C7.21997 0 5.47991 0.527841 3.99987 1.51677C2.51983 2.50571 1.36628 3.91131 0.685088 5.55585C0.00389956 7.20038 -0.17433 9.00998 0.172936 10.7558C0.520203 12.5016 1.37737 14.1053 2.63604 15.364C3.89471 16.6226 5.49836 17.4798 7.24419 17.8271C8.99002 18.1743 10.7996 17.9961 12.4442 17.3149C14.0887 16.6337 15.4943 15.4802 16.4832 14.0001C17.4722 12.5201 18 10.78 18 9C18 7.8181 17.7672 6.64778 17.3149 5.55585C16.8626 4.46392 16.1997 3.47177 15.364 2.63604C14.5282 1.80031 13.5361 1.13738 12.4442 0.685084C11.3522 0.232792 10.1819 0 9 0Z" fill="var(--fill-0, #0761B7)"/>
<g id="Vector_2">
<path d="M8.36367 8.3636C8.53245 8.19481 8.76137 8.09999 9.00007 8.09999C9.23876 8.09999 9.46768 8.19481 9.63646 8.3636C9.80524 8.53238 9.90007 8.7613 9.90007 8.99999V12.6C9.90007 12.8387 9.80524 13.0676 9.63646 13.2364C9.46768 13.4052 9.23876 13.5 9.00007 13.5C8.76137 13.5 8.53245 13.4052 8.36367 13.2364C8.19489 13.0676 8.10007 12.8387 8.10007 12.6V8.99999C8.10007 8.7613 8.19489 8.53238 8.36367 8.3636Z" fill="var(--fill-0, #E6F4FE)"/>
<path d="M8.65807 4.57199C8.87718 4.48198 9.12295 4.48198 9.34207 4.57199C9.45254 4.61483 9.55347 4.67906 9.63907 4.76099C9.80353 4.93346 9.89675 5.1617 9.90007 5.39999C9.89933 5.5474 9.8624 5.69237 9.79252 5.82216C9.72265 5.95195 9.62196 6.06259 9.49931 6.14436C9.37666 6.22612 9.2358 6.27651 9.08912 6.29109C8.94243 6.30568 8.79441 6.28401 8.65807 6.22799C8.549 6.18242 8.44855 6.11849 8.36107 6.03899C8.27765 5.9549 8.21166 5.85516 8.16687 5.74551C8.12208 5.63586 8.09938 5.51844 8.10007 5.39999C8.09702 5.28193 8.12168 5.1648 8.17207 5.05799C8.21764 4.94893 8.28157 4.84847 8.36107 4.76099C8.44666 4.67906 8.54759 4.61483 8.65807 4.57199Z" fill="var(--fill-0, #E6F4FE)"/>
</g>
</g>
</svg>
