<svg preserveAspectRatio="none" width="100%" height="100%" overflow="visible" style="display: block;" viewBox="0 0 206 141" fill="none" xmlns="http://www.w3.org/2000/svg">
<g id="Layer 1">
<path id="Vector" d="M41.3854 75.801L40.3565 87.0137L26.2355 88.7298L21.5686 139.538L9.23177 141L13.9033 90.2008L0 91.8013L1.02884 80.5932L41.3854 75.801Z" fill="var(--fill-0, white)"/>
<path id="Vector_2" d="M109.303 67.8217L116.607 75.0424L114.41 98.9341L105.836 107.825L89.2172 109.8L87.2337 131.864L74.6837 133.354L80.5184 71.2355L109.303 67.8217ZM90.2553 98.527L99.7513 97.3983L102.708 94.4333L103.811 82.2076L101.466 79.8948L91.8449 81.0373L90.2553 98.527Z" fill="var(--fill-0, white)"/>
<path id="Vector_3" d="M64.3304 73.0811L49.7042 74.8158L32.8951 138.192L44.7222 136.791L55.2516 93.8458L57.6939 135.25L69.609 133.835L64.3304 73.0811Z" fill="var(--fill-0, white)"/>
<path id="Vector_4" d="M144.056 63.7974L129.43 65.532L112.621 128.908L124.448 127.502L134.977 84.5621L137.42 125.967L149.335 124.551L144.056 63.7974Z" fill="var(--fill-0, white)"/>
<path id="Vector_5" d="M206 46.7471L162.228 51.8308L175.895 0L139.649 41.4322L118.66 21.5372L114.493 67.2713L124.406 66.1426L126.561 42.4823L140.307 55.5082L155.832 37.7594L149.131 63.1729L172.271 60.4808L157.552 71.86L171.316 84.9044L151.175 87.2958L152.018 97.019L193.135 92.1343L172.535 72.6139L206 46.7471Z" fill="var(--fill-0, #E8F044)"/>
</g>
</svg>
