<svg preserveAspectRatio="none" width="100%" height="100%" overflow="visible" style="display: block;" viewBox="0 0 11.5 13.5" fill="none" xmlns="http://www.w3.org/2000/svg">
<path id="Vector" d="M10.45 2.75C10.251 2.18524 9.88745 1.69297 9.40627 1.33654C8.92509 0.980107 8.34825 0.775831 7.75 0.75H3.75C2.95435 0.75 2.19129 1.06607 1.62868 1.62868C1.06607 2.19129 0.75 2.95435 0.75 3.75C0.75 4.54565 1.06607 5.30871 1.62868 5.87132C2.19129 6.43393 2.95435 6.75 3.75 6.75H7.75C8.54565 6.75 9.30871 7.06607 9.87132 7.62868C10.4339 8.19129 10.75 8.95435 10.75 9.75C10.75 10.5456 10.4339 11.3087 9.87132 11.8713C9.30871 12.4339 8.54565 12.75 7.75 12.75H3.75C3.15175 12.7242 2.57491 12.5199 2.09373 12.1635C1.61255 11.807 1.24905 11.3148 1.05 10.75" stroke="var(--stroke-0, #F5B230)" stroke-width="1.5" stroke-linecap="round" stroke-linejoin="round"/>
</svg>
