<svg preserveAspectRatio="none" width="100%" height="100%" overflow="visible" style="display: block;" viewBox="0 0 5.5 10.5" fill="none" xmlns="http://www.w3.org/2000/svg">
<path id="Vector" d="M4.75 2.25H2.25C1.85218 2.25 1.47064 2.40804 1.18934 2.68934C0.908035 2.97064 0.75 3.35218 0.75 3.75C0.75 4.14782 0.908035 4.52936 1.18934 4.81066C1.47064 5.09196 1.85218 5.25 2.25 5.25H3.25C3.64782 5.25 4.02936 5.40804 4.31066 5.68934C4.59196 5.97064 4.75 6.35218 4.75 6.75C4.75 7.14782 4.59196 7.52936 4.31066 7.81066C4.02936 8.09196 3.64782 8.25 3.25 8.25H0.75M2.75 8.25V9.75M2.75 0.75V2.25" stroke="var(--stroke-0, #748314)" stroke-width="1.5" stroke-linecap="round" stroke-linejoin="round"/>
</svg>
