<svg preserveAspectRatio="none" width="100%" height="100%" overflow="visible" style="display: block;" viewBox="0 0 5.33333 5.33333" fill="none" xmlns="http://www.w3.org/2000/svg">
<path id="Vector" d="M0.5 1.5C0.5 1.58841 0.535119 1.67319 0.597631 1.7357C0.660143 1.79821 0.744928 1.83333 0.833333 1.83333C0.921739 1.83333 1.00652 1.79821 1.06904 1.7357C1.13155 1.67319 1.16667 1.58841 1.16667 1.5V0.833333C1.16667 0.744928 1.13155 0.660143 1.06904 0.597631C1.00652 0.535119 0.921739 0.5 0.833333 0.5C0.744928 0.5 0.660143 0.535119 0.597631 0.597631C0.535119 0.660143 0.5 0.744928 0.5 0.833333V1.5ZM0.5 1.5C0.5 2.38406 0.851189 3.2319 1.47631 3.85702C2.10143 4.48214 2.94928 4.83333 3.83333 4.83333H4.5C4.58841 4.83333 4.67319 4.79821 4.7357 4.7357C4.79821 4.67319 4.83333 4.58841 4.83333 4.5C4.83333 4.41159 4.79821 4.32681 4.7357 4.2643C4.67319 4.20179 4.58841 4.16667 4.5 4.16667H3.83333C3.74493 4.16667 3.66014 4.20179 3.59763 4.2643C3.53512 4.32681 3.5 4.41159 3.5 4.5C3.5 4.58841 3.53512 4.67319 3.59763 4.7357C3.66014 4.79821 3.74493 4.83333 3.83333 4.83333" stroke="var(--stroke-0, #F5B230)" stroke-linecap="round" stroke-linejoin="round"/>
</svg>
