<svg preserveAspectRatio="none" width="100%" height="100%" overflow="visible" style="display: block;" viewBox="0 0 40 40" fill="none" xmlns="http://www.w3.org/2000/svg">
<g id="Group 1">
<circle id="Ellipse 1" cx="20" cy="20" r="20" fill="var(--fill-0, #A3A3A3)"/>
<g id="user (2) 1">
<path id="Vector" d="M23.7085 20.7096C24.6889 19.9383 25.4045 18.8806 25.7558 17.6836C26.107 16.4866 26.0765 15.2099 25.6683 14.0311C25.2602 12.8523 24.4948 11.83 23.4786 11.1065C22.4624 10.383 21.246 9.99414 19.9985 9.99414C18.7511 9.99414 17.5346 10.383 16.5185 11.1065C15.5023 11.83 14.7369 12.8523 14.3287 14.0311C13.9206 15.2099 13.89 16.4866 14.2413 17.6836C14.5925 18.8806 15.3081 19.9383 16.2885 20.7096C14.6086 21.3827 13.1428 22.499 12.0474 23.9396C10.952 25.3801 10.2681 27.0909 10.0685 28.8896C10.0541 29.021 10.0656 29.1538 10.1026 29.2807C10.1395 29.4075 10.201 29.5259 10.2836 29.629C10.4506 29.8371 10.6933 29.9705 10.9585 29.9996C11.2237 30.0288 11.4897 29.9514 11.6979 29.7845C11.906 29.6176 12.0394 29.3749 12.0685 29.1096C12.2881 27.1548 13.2202 25.3494 14.6868 24.0384C16.1533 22.7274 18.0514 22.0027 20.0185 22.0027C21.9856 22.0027 23.8838 22.7274 25.3503 24.0384C26.8168 25.3494 27.7489 27.1548 27.9685 29.1096C27.9957 29.3554 28.113 29.5823 28.2976 29.7467C28.4823 29.911 28.7213 30.0011 28.9685 29.9996H29.0785C29.3407 29.9695 29.5803 29.8369 29.7451 29.6309C29.9099 29.4248 29.9866 29.162 29.9585 28.8996C29.758 27.0958 29.0704 25.3806 27.9694 23.9378C26.8684 22.4951 25.3954 21.3791 23.7085 20.7096V20.7096ZM19.9985 19.9996C19.2074 19.9996 18.434 19.765 17.7763 19.3255C17.1185 18.886 16.6058 18.2613 16.303 17.5304C16.0003 16.7995 15.921 15.9952 16.0754 15.2193C16.2297 14.4434 16.6107 13.7306 17.1701 13.1712C17.7295 12.6118 18.4422 12.2308 19.2182 12.0765C19.9941 11.9222 20.7984 12.0014 21.5293 12.3041C22.2602 12.6069 22.8849 13.1196 23.3244 13.7774C23.7639 14.4352 23.9985 15.2085 23.9985 15.9996C23.9985 17.0605 23.5771 18.0779 22.827 18.8281C22.0768 19.5782 21.0594 19.9996 19.9985 19.9996Z" fill="var(--fill-0, white)"/>
</g>
</g>
</svg>
