<svg preserveAspectRatio="none" width="100%" height="100%" overflow="visible" style="display: block;" viewBox="0 0 19.4975 19.4975" fill="none" xmlns="http://www.w3.org/2000/svg">
<path id="Vector" d="M2.73874 4.93874C2.73874 4.35527 2.97053 3.79569 3.38311 3.38311C3.79569 2.97053 4.35527 2.73874 4.93874 2.73874H5.93874C6.51964 2.73841 7.07683 2.50834 7.48874 2.09874L8.18874 1.39874C8.39319 1.19314 8.63626 1.02998 8.90398 0.91865C9.17171 0.807315 9.45879 0.75 9.74874 0.75C10.0387 0.75 10.3258 0.807315 10.5935 0.91865C10.8612 1.02998 11.1043 1.19314 11.3087 1.39874L12.0087 2.09874C12.4207 2.50834 12.9778 2.73841 13.5587 2.73874H14.5587C15.1422 2.73874 15.7018 2.97053 16.1144 3.38311C16.527 3.79569 16.7587 4.35527 16.7587 4.93874V5.93874C16.7591 6.51964 16.9891 7.07683 17.3987 7.48874L18.0987 8.18874C18.3043 8.39319 18.4675 8.63626 18.5788 8.90398C18.6902 9.17171 18.7475 9.45879 18.7475 9.74874C18.7475 10.0387 18.6902 10.3258 18.5788 10.5935C18.4675 10.8612 18.3043 11.1043 18.0987 11.3087L17.3987 12.0087C16.9891 12.4207 16.7591 12.9778 16.7587 13.5587V14.5587C16.7587 15.1422 16.527 15.7018 16.1144 16.1144C15.7018 16.527 15.1422 16.7587 14.5587 16.7587H13.5587C12.9778 16.7591 12.4207 16.9891 12.0087 17.3987L11.3087 18.0987C11.1043 18.3043 10.8612 18.4675 10.5935 18.5788C10.3258 18.6902 10.0387 18.7475 9.74874 18.7475C9.45879 18.7475 9.17171 18.6902 8.90398 18.5788C8.63626 18.4675 8.39319 18.3043 8.18874 18.0987L7.48874 17.3987C7.07683 16.9891 6.51964 16.7591 5.93874 16.7587H4.93874C4.35527 16.7587 3.79569 16.527 3.38311 16.1144C2.97053 15.7018 2.73874 15.1422 2.73874 14.5587V13.5587C2.73841 12.9778 2.50834 12.4207 2.09874 12.0087L1.39874 11.3087C1.19314 11.1043 1.02998 10.8612 0.91865 10.5935C0.807315 10.3258 0.75 10.0387 0.75 9.74874C0.75 9.45879 0.807315 9.17171 0.91865 8.90398C1.02998 8.63626 1.19314 8.39319 1.39874 8.18874L2.09874 7.48874C2.50834 7.07683 2.73841 6.51964 2.73874 5.93874V4.93874" stroke="var(--stroke-0, #ADB5BD)" stroke-width="1.5" stroke-linecap="round" stroke-linejoin="round"/>
</svg>
