<svg preserveAspectRatio="none" width="100%" height="100%" overflow="visible" style="display: block;" viewBox="0 0 88 60" fill="none" xmlns="http://www.w3.org/2000/svg">
<g id="Layer 1">
<path id="Vector" d="M17.6792 32.2558L17.2397 37.0271L11.2074 37.7574L9.21377 59.378L3.94367 60L5.93926 38.3833L0 39.0644L0.439505 34.295L17.6792 32.2558Z" fill="var(--fill-0, white)"/>
<path id="Vector_2" d="M46.6925 28.8603L49.8125 31.9329L48.8741 42.0996L45.2116 45.8828L38.1122 46.7233L37.2649 56.1125L31.9037 56.7463L34.3962 30.313L46.6925 28.8603ZM38.5557 41.9264L42.6122 41.4461L43.8753 40.1844L44.3464 34.982L43.3447 33.9978L39.2347 34.484L38.5557 41.9264Z" fill="var(--fill-0, white)"/>
<path id="Vector_3" d="M27.481 31.0984L21.2329 31.8365L14.0523 58.8052L19.1046 58.2088L23.6026 39.9344L24.6459 57.5533L29.7359 56.951L27.481 31.0984Z" fill="var(--fill-0, white)"/>
<path id="Vector_4" d="M61.5386 27.1478L55.2905 27.886L48.11 54.8547L53.1623 54.2563L57.6603 35.9839L58.7036 53.6028L63.7936 53.0005L61.5386 27.1478Z" fill="var(--fill-0, white)"/>
<path id="Vector_5" d="M88 19.8924L69.3012 22.0556L75.1395 0L59.6559 17.6307L50.6896 9.16475L48.9098 28.6261L53.1445 28.1458L54.0651 18.0776L59.937 23.6205L66.5692 16.0678L63.7064 26.8821L73.5913 25.7365L67.3037 30.5787L73.1835 36.1295L64.5795 37.1472L64.9398 41.2847L82.5042 39.2061L73.7042 30.8995L88 19.8924Z" fill="var(--fill-0, #E8F044)"/>
</g>
</svg>
