<svg preserveAspectRatio="none" width="100%" height="100%" overflow="visible" style="display: block;" viewBox="0 0 6 12" fill="none" xmlns="http://www.w3.org/2000/svg">
<g id="Group 2425">
<path id="Vector" d="M0.500506 8L5.49952 8C5.77593 8 6 8.22452 6 8.50148C6 8.60998 5.96488 8.71556 5.8999 8.80236L3.40003 11.7994C3.23419 12.0209 2.92049 12.0658 2.69936 11.8997C2.66143 11.8712 2.62772 11.8374 2.59927 11.7994L0.100125 8.80236C-0.0657185 8.5808 -0.0209044 8.26647 0.20022 8.1003C0.28685 8.03519 0.392217 8 0.500506 8Z" fill="var(--fill-0, #5E6770)"/>
<path id="Vector_2" d="M0.500506 4L5.49952 4C5.77593 4 6 3.77548 6 3.49852C6 3.39002 5.96488 3.28444 5.8999 3.19764L3.40003 0.20062C3.23419 -0.0209462 2.92049 -0.0658499 2.69936 0.100325C2.66143 0.128836 2.62772 0.162606 2.59927 0.20062L0.100125 3.19764C-0.0657185 3.4192 -0.0209044 3.73353 0.20022 3.8997C0.28685 3.96481 0.392217 4 0.500506 4Z" fill="var(--fill-0, #5E6770)"/>
</g>
</svg>
