<svg preserveAspectRatio="none" width="100%" height="100%" overflow="visible" style="display: block;" viewBox="0 0 7.5 9.50227" fill="none" xmlns="http://www.w3.org/2000/svg">
<path id="Vector" d="M6.55 1.75113C6.36885 1.43689 6.10565 1.17784 5.78858 1.00169C5.47151 0.825536 5.11251 0.738928 4.75 0.751133H2.75C2.21957 0.751133 1.71086 0.961847 1.33579 1.33692C0.960714 1.71199 0.75 2.2207 0.75 2.75113C0.75 3.28157 0.960714 3.79027 1.33579 4.16535C1.71086 4.54042 2.21957 4.75113 2.75 4.75113H4.75C5.28043 4.75113 5.78914 4.96185 6.16421 5.33692C6.53929 5.71199 6.75 6.2207 6.75 6.75113C6.75 7.28157 6.53929 7.79027 6.16421 8.16535C5.78914 8.54042 5.28043 8.75113 4.75 8.75113H2.75C2.38749 8.76334 2.02849 8.67673 1.71142 8.50058C1.39435 8.32443 1.13115 8.06537 0.95 7.75113" stroke="var(--stroke-0, #0D121C)" stroke-width="1.5" stroke-linecap="round" stroke-linejoin="round"/>
</svg>
